<svg xmlns="http://www.w3.org/2000/svg" viewBox="0 0 560.75 98.24"><defs><style>.cls-1{fill:#efefef;}</style></defs><title>ConstellaForge</title><g id="Layer_2" data-name="Layer 2"><g id="Layer_1-2" data-name="Layer 1"><path class="cls-1" d="M70.78,60.74Q69.33,71,62.32,76.85a25.4,25.4,0,0,1-16.77,5.81q-12.67,0-19.8-8.85T18.62,49.12q0-15.7,7.19-24.62t19.74-8.91q9.38,0,15.78,4.81t8.78,14.06H88.2Q85.31,17.7,73.68,8.85T45.55,0Q25,0,12.54,13.21T0,49.12Q0,71.58,12.68,84.91,25.21,98.25,45.55,98.24q16.91,0,29.05-9.77t14-27.73Z"/><path class="cls-1" d="M156.2,36.05q-9.51-9.64-25.09-9.64T106,36.18q-9.63,9.65-9.64,25.88T106,88q9.51,9.76,25.09,9.77T156.2,88q9.5-9.78,9.5-25.89Q165.7,45.69,156.2,36.05ZM144.12,78.24q-4.69,5.73-13,5.74t-13-5.68c-3.12-3.79-4.68-9.19-4.68-16.24S115,49.61,118.1,45.82s7.46-5.68,13-5.68,9.88,1.92,13,5.75,4.69,9.22,4.69,16.17S147.24,74.41,144.12,78.24Z"/><path class="cls-1" d="M231.65,32.81q-6.41-6.39-17.49-6.4-13.47,0-21.26,11.36V28H176.8V96.13h16.63V58q0-8.05,4.43-12.61a14.4,14.4,0,0,1,10.75-4.55q12.81,0,12.81,12.94V96.13h16.64V51Q238.06,39.21,231.65,32.81Z"/><path class="cls-1" d="M303.61,63q-5.61-4.89-18-7.14L277,54.54q-6.08-1.07-8.72-3a6.22,6.22,0,0,1-2.63-5.34q0-7.92,11.88-7.93,7,0,10.56,2.58t3.83,8.65h15.71q-.93-23.1-30.1-23.11-13.47,0-20.86,5.48T249.28,47q0,16.91,22.32,20.59l7.79,1.33q7.53,1.32,10.43,3.3a6.47,6.47,0,0,1,2.9,5.68q0,8.18-13.46,8.19-7.53,0-11-2.65t-4.16-9H247.83Q249.15,98,279,98q14.38,0,22.31-5.54t7.92-15.85Q309.22,67.88,303.61,63Z"/><path class="cls-1" d="M353.19,40.67V28H339.73V8.19H323.22V28H312.65V40.67h10.57V79.23q0,9.1,5.08,13.26t16.18,4.17c2.2,0,5.11-.18,8.71-.53V83.45h-5.67c-2.82,0-4.83-.43-6-1.31s-1.77-2.43-1.77-4.63V40.67Z"/><path class="cls-1" d="M426.61,62.36q0-16.5-9.12-26.67T392.93,25.52q-15,0-24.42,9.77t-9.24,25.88c0,10.74,3.12,20.26,9.37,26.78s14.43,9.77,24.56,9.77q12.15,0,20.6-6.15a28.33,28.33,0,0,0,10.91-15.93H408.62q-4.31,9.14-15.29,9.13-7.65,0-12.21-4.42c-3-2.95-4.87-9.1-5.48-14.91h51Zm-50.84-7.65q2.37-16.24,17-16.25a16,16,0,0,1,11.63,4.36c3,2.91,4.84,6.87,5.54,11.89Z"/><path class="cls-1" d="M438,2.11v94h16.63v-94Z"/><path class="cls-1" d="M468.72,2.11v94h16.63v-94Z"/><path class="cls-1" d="M558,83.18V46.88q0-20.48-28.39-20.47-29.18,0-30.64,23.24h16.38q.52-5.94,3.7-8.38c2.11-1.64,5.59-2.44,10.43-2.44q6.74,0,9.57,2t2.84,6.4a6.43,6.43,0,0,1-2.24,5.35c-1.5,1.19-4,2-7.4,2.44l-10.3.93q-26.13,2.63-26.14,21.26,0,9.63,6.66,15c4.45,3.6,10.41,5.42,17.9,5.42q15,0,21.91-9.91c.45,4.13,1.06,6.91,1.85,8.32h16.64Q558,92.17,558,83.18Zm-16.11-14q0,8.06-4.88,12.35t-12.68,4.29c-3.7,0-6.53-.82-8.52-2.44a8.35,8.35,0,0,1-3-6.81,8.1,8.1,0,0,1,2.84-6.66q2.83-2.31,9.44-3.11l9-1c3.61-.44,6.2-1.36,7.79-2.77Z"/></g></g></svg>