<svg height="383.986pt" viewBox="0 0 383.986 383.986" width="383.986pt"
    xmlns="http://www.w3.org/2000/svg">
    <path d="m313.386719 14.042969c-18.722657-18.722657-49.175781-18.730469-67.914063.007812l-51.679687 51.757813c-6.238281 6.25-6.230469 16.386718.015625 22.625 6.25 6.242187 16.375 6.242187 22.625-.015625l51.671875-51.742188c6.246093-6.25 16.40625-6.242187 22.65625-.011719l56.558593 56.5625c6.242188 6.238282 6.242188 16.40625 0 22.65625l-119.4375 119.429688c-6.25 6.25-16.410156 6.242188-22.65625.007812l-28.242187-28.238281c-6.246094-6.246093-16.375-6.246093-22.625 0-6.246094 6.246094-6.246094 16.375 0 22.625l28.242187 28.238281c9.359376 9.359376 21.648438 14.039063 33.945313 14.039063 11.269531 0 22.429687-4.125 31.4375-11.980469.886719-.585937 1.738281-1.273437 2.519531-2.058594l119.449219-119.4375c18.710937-18.730468 18.710937-49.1875-.007813-67.90625zm0 0"/>
    <path d="m167.648438 295.632812-51.765626 51.679688c-6.25 6.25-16.410156 6.242188-22.65625.007812l-56.5625-56.558593c-6.238281-6.238281-6.238281-16.40625 0-22.65625l119.441407-119.429688c6.246093-6.25 16.40625-6.242187 22.65625-.011719l28.320312 28.320313c6.246094 6.25 16.375 6.25 22.621094 0 6.25-6.246094 6.25-16.375 0-22.621094l-28.316406-28.320312c-17.9375-17.9375-46.554688-18.488281-65.394531-2.058594-.886719.585937-1.734376 1.273437-2.519532 2.058594l-119.441406 119.4375c-18.710938 18.730469-18.710938 49.183593.007812 67.90625l56.5625 56.558593c9.359376 9.359376 21.65625 14.039063 33.953126 14.039063 12.285156 0 24.582031-4.679687 33.941406-14.03125l51.761718-51.679687c6.246094-6.238282 6.253907-16.375.015626-22.625-6.242188-6.253907-16.367188-6.253907-22.625-.015626zm0 0"/>
</svg>