<svg id="Capa_1" enable-background="new 0 0 512 512" height="512" viewBox="0 0 512 512" width="512"
    xmlns="http://www.w3.org/2000/svg">
    <path d="m405.364 413.978-105.498-39.918v-25.482c28.007-13.324 49.052-38.989 56.06-69.924h10.181c15.275 0 27.703-12.428 27.703-27.703v-14.142c0-8.118-3.509-15.431-9.091-20.502v-33.037c0-4.142-3.357-7.5-7.5-7.5h-26.265-137.36c-4.142 0-7.5 3.358-7.5 7.5s3.358 7.5 7.5 7.5h129.861v65.232c0 48.223-39.232 87.455-87.455 87.455s-87.455-39.232-87.455-87.455v-65.232h10.039c4.142 0 7.5-3.358 7.5-7.5s-3.358-7.5-7.5-7.5h-17.538-26.265c-4.142 0-7.5 3.358-7.5 7.5v33.036c-5.582 5.072-9.091 12.385-9.091 20.503v14.142c0 15.275 12.428 27.703 27.703 27.703h10.181c7.009 30.935 28.053 56.6 56.061 69.924v25.482l-105.498 39.918c-26.321 9.959-44.006 35.559-44.006 63.701v26.821c0 4.142 3.358 7.5 7.5 7.5h238.369c4.143 0 7.5-3.358 7.5-7.5s-3.357-7.5-7.5-7.5h-166.219v-22.805c0-4.142-3.358-7.5-7.5-7.5s-7.5 3.358-7.5 7.5v22.805h-49.65v-19.321c0-21.945 13.79-41.906 34.315-49.672l110.343-41.752c2.875-1.088 4.846-3.94 4.846-7.015v-24.931c9.16 2.694 18.846 4.146 28.866 4.146s19.706-1.453 28.866-4.147v24.931c0 3.075 1.969 5.926 4.846 7.015l110.343 41.752c20.524 7.766 34.314 27.727 34.314 49.672v19.322h-49.65v-22.805c0-4.142-3.357-7.5-7.5-7.5s-7.5 3.358-7.5 7.5v22.805h-26.22c-4.143 0-7.5 3.358-7.5 7.5s3.357 7.5 7.5 7.5h98.37c4.143 0 7.5-3.358 7.5-7.5v-26.821c-.001-28.143-17.685-53.743-44.006-63.701zm-26.554-163.028c0 7.004-5.698 12.703-12.703 12.703h-7.938c.188-2.527.285-5.078.285-7.652v-31.896h7.652c7.005 0 12.703 5.699 12.703 12.704v14.141zm-9.091-41.602c-1.183-.155-2.387-.243-3.612-.243h-7.652v-18.335h11.265v18.578zm-227.438-18.578h11.265v18.335h-7.653c-1.225 0-2.429.088-3.612.243zm3.612 72.884c-7.004 0-12.703-5.699-12.703-12.703v-14.142c0-7.005 5.699-12.704 12.703-12.704h7.653v31.896c0 2.574.098 5.125.285 7.652h-7.938z"/>
    <path d="m326.711 434.37h-50.508c-1.164 0-2.313.271-3.354.792l-16.849 8.425-16.849-8.424c-1.041-.521-2.189-.792-3.354-.792h-50.508c-4.142 0-7.5 3.358-7.5 7.5s3.358 7.5 7.5 7.5h48.738l18.62 9.31c1.056.528 2.205.792 3.354.792s2.299-.264 3.354-.792l18.619-9.31h48.737c4.143 0 7.5-3.358 7.5-7.5s-3.358-7.501-7.5-7.501z"/>
    <path d="m198.541 100.056c1.464 1.464 3.383 2.196 5.303 2.196 1.919 0 3.839-.732 5.304-2.197 2.929-2.929 2.928-7.678-.001-10.606l-15.423-15.42c-6.528-6.528-10.123-15.214-10.123-24.457 0-9.236 3.595-17.918 10.123-24.447 13.48-13.48 35.413-13.479 48.893 0l8.08 8.08c2.928 2.928 7.676 2.929 10.607 0l8.08-8.08c13.478-13.479 35.414-13.479 48.892 0 12.499 12.499 13.532 31.947 2.903 45.609-6.593.208-12.799 2.662-17.727 7.005-5.154-4.543-11.706-7.025-18.639-7.025-7.541 0-14.631 2.937-19.964 8.269-11.006 11.008-11.006 28.918 0 39.926l4.273 4.273-13.121 13.115-21.963-21.959c-2.929-2.929-7.678-2.929-10.606.001-2.929 2.929-2.928 7.678.001 10.606l27.265 27.26c1.464 1.464 3.383 2.196 5.303 2.196 1.919 0 3.838-.732 5.302-2.195l18.427-18.419 18.42 18.42c1.465 1.465 3.384 2.197 5.304 2.197 1.919 0 3.839-.732 5.304-2.197l33.3-33.299c11.007-11.007 11.007-28.918-.001-39.927-1.665-1.665-3.502-3.097-5.47-4.278 11.316-19.089 8.684-43.801-7.701-60.185-9.366-9.362-21.814-14.518-35.056-14.518s-25.69 5.156-35.054 14.519l-2.776 2.777-2.777-2.777c-19.328-19.328-50.778-19.327-70.106 0-9.361 9.362-14.517 21.81-14.517 35.053 0 13.249 5.155 25.702 14.517 35.064zm132.907 8.246-27.996 27.995-27.995-27.995c-5.159-5.159-5.159-13.554-.001-18.713 2.5-2.499 5.823-3.875 9.357-3.875s6.857 1.376 9.356 3.875l3.978 3.979c2.93 2.928 7.679 2.93 10.606 0l3.979-3.979c2.5-2.499 5.823-3.875 9.357-3.875s6.857 1.376 9.356 3.875c5.162 5.159 5.162 13.554.003 18.713z"/>
</svg>