<svg xmlns="http://www.w3.org/2000/svg" viewBox="0 0 545.01 34.97"><defs><style>.cls-1{fill:#efefef;}</style></defs><title>IntelligenceForge</title><g id="Layer_2" data-name="Layer 2"><g id="Layer_1-2" data-name="Layer 1"><path class="cls-1" d="M0,34.21V.75H5V34.21Z"/><path class="cls-1" d="M54.19.75H59V34.21H53.25L43,18q-4.51-7-6.54-10.76.19,5.6.19,16.82V34.21H31.72V.75H37.5L47.84,17Q52,23.59,54.38,27.78q-.2-5.64-.19-16.88Z"/><path class="cls-1" d="M110.64.75V5.26H99.54v29H94.42V5.26H83.33V.75Z"/><path class="cls-1" d="M158.76,5.26H139.92v9.45H157v4.42H139.92V29.7h18.7v4.51H134.89V.75h23.87Z"/><path class="cls-1" d="M188.75,29.7h16.4v4.51H183.72V.75h5Z"/><path class="cls-1" d="M234.81,29.7h16.4v4.51H229.78V.75h5Z"/><path class="cls-1" d="M275.84,34.21V.75h5V34.21Z"/><path class="cls-1" d="M323.12,16.64h14.57V34.21h-3.85l-.9-4.46Q329.19,35,322,35t-11.51-4.85q-4.38-4.78-4.37-12.64t4.41-12.69Q315,0,322.32,0a15.93,15.93,0,0,1,10.2,3.2,13.13,13.13,0,0,1,4.79,8.6h-5.17a8.61,8.61,0,0,0-3.36-5.36,10.41,10.41,0,0,0-6.41-2,9.9,9.9,0,0,0-8,3.53q-3,3.48-3,9.49t3,9.5a10.17,10.17,0,0,0,8.08,3.52,10.6,10.6,0,0,0,7.38-2.72A9.21,9.21,0,0,0,333,20.91h-9.87Z"/><path class="cls-1" d="M387.79,5.26H369v9.45H386v4.42H369V29.7h18.7v4.51H363.92V.75h23.87Z"/><path class="cls-1" d="M435.21.75h4.84V34.21h-5.78L424,18q-4.51-7-6.53-10.76.19,5.6.19,16.82V34.21h-4.89V.75h5.78L428.87,17q4.19,6.62,6.53,10.81-.18-5.64-.19-16.88Z"/><path class="cls-1" d="M469.81,30.22q-4.43-4.69-4.42-12.74t4.37-12.73A14.78,14.78,0,0,1,481.18,0a15.59,15.59,0,0,1,9.54,3,13.91,13.91,0,0,1,5.12,8.88h-5.07a9.53,9.53,0,0,0-3.46-5.52,10,10,0,0,0-6.13-1.86A9.44,9.44,0,0,0,473.47,8q-2.87,3.5-2.86,9.51T473.47,27a9.46,9.46,0,0,0,7.71,3.5,10.4,10.4,0,0,0,6.49-2.21A9.43,9.43,0,0,0,491,21.85h5a13.59,13.59,0,0,1-4.84,9.69,15.31,15.31,0,0,1-10,3.43A14.75,14.75,0,0,1,469.81,30.22Z"/><path class="cls-1" d="M545,5.26H526.16v9.45h17.06v4.42H526.16V29.7h18.71v4.51H521.13V.75H545Z"/></g></g></svg>