<?xml version="1.0" encoding="utf-8"?>
<!-- Generator: Adobe Illustrator 24.1.0, SVG Export Plug-In . SVG Version: 6.00 Build 0)  -->
<svg version="1.1" id="gmail" xmlns="http://www.w3.org/2000/svg" xmlns:xlink="http://www.w3.org/1999/xlink" x="0px" y="0px"
	 width="192px" height="192px" viewBox="0 0 192 192" enable-background="new 0 0 192 192" xml:space="preserve">
<rect id="bounding_box_1_" fill="none" width="192" height="192"/>
<g id="art_layer_1_">
	<g>
		<path fill="#C5221F" d="M8,46v16l18.35,17.76L48,92l4-26.93L48,40l-11.2-8.4C24.93,22.7,8,31.17,8,46"/>
		<path fill="#FFBA00" d="M144,40l-4,25.4l4,26.6l19.65-9.73L184,62V46c0-14.83-16.93-23.3-28.8-14.4L144,40z"/>
		<path fill="#2684FC" d="M20,160h28V92L8,62v86C8,154.63,13.37,160,20,160"/>
		<path fill="#00AC47" d="M144,160h28c6.63,0,12-5.37,12-12V62l-40,30V160z"/>
		<polygon fill="#E94235" points="96,76 48,40 48,92 96,128 144,92 144,40 		"/>
	</g>
</g>
</svg>
